<svg width="24" height="24" viewBox="0 0 24 24" fill="none" xmlns="http://www.w3.org/2000/svg">
<rect width="24" height="24" rx="3" fill="none"/>
<path d="M5.77778 20V18.5H7.33333V16.25H6.55556C6.12778 16.25 5.76157 16.1031 5.45694 15.8094C5.15231 15.5156 5 15.1625 5 14.75V13.25C5 12.8375 5.15231 12.4844 5.45694 12.1906C5.76157 11.8969 6.12778 11.75 6.55556 11.75H7.33333V9.5H5.77778V8H7.60556C7.92963 7.125 8.49028 6.40625 9.2875 5.84375C10.0847 5.28125 10.9889 5 12 5C13.0111 5 13.9153 5.28125 14.7125 5.84375C15.5097 6.40625 16.0704 7.125 16.3944 8H18.2222V9.5H16.6667V11.75H17.4444C17.8722 11.75 18.2384 11.8969 18.5431 12.1906C18.8477 12.4844 19 12.8375 19 13.25V14.75C19 15.1625 18.8477 15.5156 18.5431 15.8094C18.2384 16.1031 17.8722 16.25 17.4444 16.25H16.6667V18.5H18.2222V20H5.77778ZM9.29722 8H14.7028C14.4306 7.55 14.0579 7.1875 13.5847 6.9125C13.1116 6.6375 12.5833 6.5 12 6.5C11.4167 6.5 10.8884 6.6375 10.4153 6.9125C9.94213 7.1875 9.56944 7.55 9.29722 8ZM8.88889 18.5H15.1111V14.75H17.4444V13.25H15.1111V9.5H8.88889V13.25H6.55556V14.75H8.88889V18.5ZM12 16.625C12.7519 16.625 13.3935 16.3688 13.925 15.8563C14.4565 15.3438 14.7222 14.725 14.7222 14C14.7222 13.275 14.4565 12.6563 13.925 12.1438C13.3935 11.6313 12.7519 11.375 12 11.375C11.2481 11.375 10.6065 11.6313 10.075 12.1438C9.54352 12.6563 9.27778 13.275 9.27778 14C9.27778 14.725 9.54352 15.3438 10.075 15.8563C10.6065 16.3688 11.2481 16.625 12 16.625ZM12 15.125C11.6759 15.125 11.4005 15.0156 11.1736 14.7969C10.9468 14.5781 10.8333 14.3125 10.8333 14C10.8333 13.6875 10.9468 13.4219 11.1736 13.2031C11.4005 12.9844 11.6759 12.875 12 12.875C12.3241 12.875 12.5995 12.9844 12.8264 13.2031C13.0532 13.4219 13.1667 13.6875 13.1667 14C13.1667 14.3125 13.0532 14.5781 12.8264 14.7969C12.5995 15.0156 12.3241 15.125 12 15.125Z" fill="#FF0000"/>
</svg>
