<svg width="20" height="20" viewBox="0 0 20 20" fill="none" xmlns="http://www.w3.org/2000/svg">
<path d="M4.375 11.4211C4.375 12.2421 4.53906 13.0197 4.86719 13.7539C5.19531 14.4882 5.66406 15.1316 6.27344 15.6842C6.25781 15.6053 6.25 15.5342 6.25 15.4711V15.2579C6.25 14.7526 6.34375 14.2789 6.53125 13.8368C6.71875 13.3947 6.99219 12.9921 7.35156 12.6289L10 10L12.6484 12.6289C13.0078 12.9921 13.2813 13.3947 13.4688 13.8368C13.6563 14.2789 13.75 14.7526 13.75 15.2579V15.4711C13.75 15.5342 13.7422 15.6053 13.7266 15.6842C14.3359 15.1316 14.8047 14.4882 15.1328 13.7539C15.4609 13.0197 15.625 12.2421 15.625 11.4211C15.625 10.6316 15.4805 9.88553 15.1914 9.18289C14.9023 8.48026 14.4844 7.85263 13.9375 7.3C13.625 7.50526 13.2969 7.65921 12.9531 7.76184C12.6094 7.86447 12.2578 7.91579 11.8984 7.91579C10.9297 7.91579 10.0898 7.59211 9.37891 6.94474C8.66797 6.29737 8.25781 5.5 8.14844 4.55263C7.53906 5.07368 7 5.61447 6.53125 6.175C6.0625 6.73553 5.66797 7.30395 5.34766 7.88026C5.02734 8.45658 4.78516 9.04474 4.62109 9.64474C4.45703 10.2447 4.375 10.8368 4.375 11.4211ZM10 12.6526L8.66406 13.9789C8.49219 14.1526 8.35938 14.35 8.26562 14.5711C8.17188 14.7921 8.125 15.0211 8.125 15.2579C8.125 15.7632 8.30859 16.1974 8.67578 16.5605C9.04297 16.9237 9.48438 17.1053 10 17.1053C10.5156 17.1053 10.957 16.9237 11.3242 16.5605C11.6914 16.1974 11.875 15.7632 11.875 15.2579C11.875 15.0053 11.8281 14.7724 11.7344 14.5592C11.6406 14.3461 11.5078 14.1526 11.3359 13.9789L10 12.6526ZM10 1V4.12632C10 4.66316 10.1836 5.11316 10.5508 5.47632C10.918 5.83947 11.3672 6.02105 11.8984 6.02105C12.1797 6.02105 12.4414 5.96184 12.6836 5.84342C12.9258 5.725 13.1406 5.54737 13.3281 5.31053L13.75 4.78947C14.9062 5.45263 15.8203 6.37632 16.4922 7.56053C17.1641 8.74474 17.5 10.0316 17.5 11.4211C17.5 13.5368 16.7734 15.3289 15.3203 16.7974C13.8672 18.2658 12.0938 19 10 19C7.90625 19 6.13281 18.2658 4.67969 16.7974C3.22656 15.3289 2.5 13.5368 2.5 11.4211C2.5 9.38421 3.17578 7.45 4.52734 5.61842C5.87891 3.78684 7.70312 2.24737 10 1Z" fill="#FFCC00" fill-opacity="0.72"/>
</svg>
