<?xml version="1.0" standalone="no"?>
<!DOCTYPE svg PUBLIC "-//W3C//DTD SVG 20010904//EN"
 "http://www.w3.org/TR/2001/REC-SVG-20010904/DTD/svg10.dtd">
<svg version="1.0" xmlns="http://www.w3.org/2000/svg"
 width="900.000000pt" height="512.000000pt" viewBox="0 0 900.000000 512.000000"
 preserveAspectRatio="xMidYMid meet">
<metadata>
Created by potrace 1.16, written by Peter Selinger 2001-2019
</metadata>
<g transform="translate(0.000000,512.000000) scale(0.100000,-0.100000)"
fill="#FFCC00"
stroke="none">
<path d="M4400 4830 c-84 -10 -220 -50 -295 -87 -130 -66 -282 -197 -380 -328
-55 -74 -1607 -2660 -1663 -2770 -54 -108 -90 -221 -107 -335 -18 -114 -19
-168 -4 -263 52 -348 292 -615 644 -715 168 -48 117 -47 1910 -47 1820 0 1746
-2 1920 52 568 178 791 754 510 1313 -45 90 -1564 2626 -1633 2726 -221 323
-556 491 -902 454z m235 -541 c63 -24 152 -93 205 -160 43 -55 1587 -2623
1637 -2724 72 -143 79 -277 23 -392 -46 -93 -126 -152 -261 -190 -61 -17 -147
-18 -1739 -18 -1557 0 -1679 1 -1737 17 -136 38 -217 97 -265 196 -30 60 -33
75 -33 152 1 90 17 153 63 245 13 28 381 644 816 1369 730 1218 796 1325 861
1390 134 136 275 173 430 115z"/>
<path d="M4415 3525 c-198 -44 -333 -242 -297 -437 11 -60 370 -968 382 -968
9 0 361 876 378 939 30 116 -5 254 -89 345 -61 67 -124 103 -209 122 -77 16
-87 16 -165 -1z"/>
<path d="M4379 1897 c-120 -50 -186 -131 -208 -253 -28 -152 47 -297 188 -363
47 -22 70 -26 146 -26 105 0 159 21 231 91 133 129 134 344 3 475 -92 92 -245
124 -360 76z"/>
</g>
</svg>
