<svg width="20" height="20" viewBox="0 0 20 20" fill="none" xmlns="http://www.w3.org/2000/svg">
<path fill-rule="evenodd" clip-rule="evenodd" d="M2.5 20C1.95 20 1.47917 19.8042 1.0875 19.4125C0.695833 19.0208 0.5 18.55 0.5 18L0.5 4C0.5 3.45 0.695833 2.97917 1.0875 2.5875C1.47917 2.19583 1.95 2 2.5 2L16.5 2C17.05 2 17.5208 2.19583 17.9125 2.5875C18.3042 2.97917 18.5 3.45 18.5 4L18.5 18C18.5 18.55 18.3042 19.0208 17.9125 19.4125C17.5208 19.8042 17.05 20 16.5 20L2.5 20ZM1.97059 18.5294L14.3058 18.5294L11.8823 15.8298L11.8823 17.5699L10.6911 17.5699L10.6911 14.503L9.37767 13.0399L8.84479 15.4061L4.73523 14.5646L4.97346 13.3625L7.83229 13.9636L8.25735 11.792L7.71317 11.1858L7.71317 11.5594L6.52199 11.5594L6.52199 9.85897L1.97059 4.78915L1.97059 18.5294ZM2.92122 3.47059L16.4402 18.5294L17.0294 18.5294L17.0294 3.47059L2.92122 3.47059ZM10.9889 10.0567L10.824 10.8887L8.22575 7.99443L8.87457 7.71263C9.22199 7.56237 9.4776 7.4647 9.64139 7.41962C9.80517 7.37454 9.95655 7.352 10.0955 7.352C10.304 7.352 10.4975 7.4071 10.6762 7.51729C10.8549 7.62748 10.9988 7.77274 11.108 7.95305L11.7036 8.91474C11.9617 9.33547 12.3116 9.68108 12.7533 9.95155C13.1951 10.222 13.6988 10.3573 14.2646 10.3573L14.2646 11.5594C13.6095 11.5594 12.9965 11.4216 12.4258 11.1461C11.855 10.8707 11.376 10.5075 10.9889 10.0567ZM10.1476 6.69836C10.3809 6.93377 10.6613 7.05148 10.9889 7.05148C11.3165 7.05148 11.5969 6.93377 11.8302 6.69836C12.0634 6.46294 12.1801 6.17995 12.1801 5.84937C12.1801 5.51879 12.0634 5.2358 11.8302 5.00038C11.5969 4.76497 11.3165 4.64727 10.9889 4.64727C10.6613 4.64727 10.3809 4.76497 10.1476 5.00038C9.91437 5.2358 9.79773 5.51879 9.79773 5.84937C9.79773 6.17995 9.91437 6.46294 10.1476 6.69836Z" fill="#FFCC00"/>
</svg>
