<?xml version="1.0" standalone="no"?>
<!DOCTYPE svg PUBLIC "-//W3C//DTD SVG 20010904//EN"
 "http://www.w3.org/TR/2001/REC-SVG-20010904/DTD/svg10.dtd">
<svg version="1.0" xmlns="http://www.w3.org/2000/svg"
 width="512.000000pt" height="512.000000pt" viewBox="0 0 512.000000 512.000000"
 preserveAspectRatio="xMidYMid meet">

<g transform="translate(0.000000,512.000000) scale(0.100000,-0.100000)"
fill="#FFCC00" stroke="none">
<path d="M1831 4444 c-259 -69 -404 -349 -310 -599 11 -29 31 -70 44 -90 14
-20 25 -39 25 -43 0 -4 -26 -20 -58 -37 -31 -16 -89 -61 -129 -101 -69 -68
-75 -71 -138 -82 -131 -22 -245 -96 -315 -204 -81 -125 -94 -300 -31 -433 17
-38 40 -78 49 -89 10 -11 13 -20 6 -23 -44 -15 -145 -88 -196 -141 -59 -62
-64 -64 -127 -73 -183 -26 -329 -162 -377 -350 -29 -112 -3 -253 64 -352 l29
-44 -41 -20 c-156 -77 -275 -230 -312 -403 -18 -86 -20 -606 -2 -645 27 -59
-152 -55 2548 -55 2700 0 2521 -4 2548 55 18 39 16 559 -2 645 -37 175 -159
330 -318 406 l-37 17 31 44 c185 269 13 656 -313 702 -63 9 -68 11 -127 73
-51 53 -152 126 -196 141 -7 3 -4 12 6 23 9 11 32 51 50 89 44 94 51 218 19
323 -49 163 -192 285 -366 314 -63 11 -69 14 -138 82 -40 40 -98 85 -129 101
-32 17 -58 33 -58 37 0 4 11 23 25 43 64 95 88 228 61 346 -60 270 -342 425
-598 329 -125 -46 -237 -164 -276 -289 -37 -122 -15 -285 53 -386 14 -20 25
-39 25 -43 0 -4 -26 -20 -58 -37 -31 -16 -89 -61 -129 -101 l-73 -72 -72 72
c-41 40 -99 85 -130 101 -32 17 -58 33 -58 37 0 4 11 23 25 43 64 95 88 228
61 346 -56 252 -310 409 -555 343z m225 -212 c238 -123 155 -482 -111 -482
-117 0 -215 77 -246 193 -34 128 46 264 181 308 40 13 133 3 176 -19z m1230 0
c238 -123 155 -482 -111 -482 -117 0 -215 77 -246 193 -34 128 46 264 181 308
40 13 133 3 176 -19z m-1141 -693 c59 -11 130 -42 172 -76 l22 -18 -57 -45
c-121 -96 -177 -223 -170 -383 3 -78 9 -103 36 -162 18 -38 41 -78 50 -89 10
-11 13 -20 6 -23 -44 -15 -145 -88 -195 -140 -33 -35 -62 -63 -64 -63 -2 0
-31 28 -64 63 -50 52 -151 125 -195 140 -7 3 -4 12 6 23 9 11 32 51 50 89 27
59 33 84 36 162 7 160 -49 287 -170 383 l-57 45 22 18 c36 29 93 56 150 72 64
17 337 20 422 4z m1230 0 c59 -11 130 -42 172 -76 l22 -18 -57 -45 c-121 -96
-177 -223 -170 -383 3 -78 9 -103 36 -162 18 -38 41 -78 50 -89 10 -11 13 -20
6 -23 -44 -15 -145 -88 -195 -140 -33 -35 -62 -63 -64 -63 -2 0 -31 28 -64 63
-50 52 -151 125 -195 140 -7 3 -4 12 6 23 9 11 32 51 50 89 27 59 33 84 36
162 7 160 -49 287 -170 383 l-57 45 22 18 c36 29 93 56 150 72 64 17 337 20
422 4z m-1924 -275 c84 -46 129 -122 129 -216 0 -79 -16 -121 -65 -176 -53
-59 -108 -84 -186 -84 -73 0 -133 27 -182 82 -52 56 -67 96 -67 174 0 113 74
212 184 246 51 15 130 4 187 -26z m1230 0 c84 -46 129 -122 129 -216 0 -79
-16 -121 -65 -176 -53 -59 -108 -84 -186 -84 -73 0 -133 27 -182 82 -52 56
-67 96 -67 174 0 113 74 212 184 246 51 15 130 4 187 -26z m1230 0 c84 -46
129 -122 129 -216 0 -79 -16 -121 -65 -176 -53 -59 -108 -84 -186 -84 -73 0
-133 27 -182 82 -52 56 -67 96 -67 174 0 113 74 212 184 246 51 15 130 4 187
-26z m-2291 -715 c30 -14 66 -36 80 -48 25 -21 25 -21 5 -33 -49 -29 -126
-114 -158 -176 -79 -151 -71 -329 21 -465 l29 -44 -41 -20 c-62 -31 -157 -106
-191 -152 -16 -22 -32 -41 -35 -41 -3 0 -18 19 -35 41 -37 51 -107 107 -178
144 l-55 29 30 44 c124 180 92 434 -74 587 -33 30 -63 55 -69 55 -19 0 -8 19
22 41 18 12 57 33 88 46 54 22 65 23 281 21 219 -3 226 -4 280 -29z m1230 0
c30 -14 66 -36 80 -48 25 -21 25 -21 5 -33 -49 -29 -126 -114 -158 -176 -79
-151 -71 -329 21 -465 l29 -44 -41 -20 c-62 -31 -157 -106 -191 -152 -16 -22
-32 -41 -35 -41 -3 0 -18 19 -35 41 -37 51 -107 107 -178 144 l-55 29 30 44
c124 180 92 434 -74 587 -33 30 -63 55 -69 55 -19 0 -8 19 22 41 18 12 57 33
88 46 54 22 65 23 281 21 219 -3 226 -4 280 -29z m1230 0 c30 -14 66 -36 80
-48 25 -21 25 -21 5 -33 -49 -29 -126 -114 -158 -176 -79 -151 -71 -329 21
-465 l29 -44 -41 -20 c-62 -31 -157 -106 -191 -152 -16 -22 -32 -41 -35 -41
-3 0 -18 19 -35 41 -37 51 -107 107 -178 144 l-55 29 30 44 c124 180 92 434
-74 587 -33 30 -63 55 -69 55 -19 0 -8 19 22 41 18 12 57 33 88 46 54 22 65
23 281 21 219 -3 226 -4 280 -29z m-3245 -248 c209 -110 159 -424 -76 -473
-119 -25 -248 53 -283 171 -20 67 -20 94 -1 157 34 115 150 191 270 176 22 -2
62 -16 90 -31z m1230 0 c133 -70 173 -247 85 -370 -91 -125 -263 -143 -375
-40 -48 44 -85 124 -85 183 0 91 62 195 137 232 83 39 157 38 238 -5z m1230 0
c133 -70 173 -247 85 -370 -91 -125 -263 -143 -375 -40 -48 44 -85 124 -85
183 0 91 62 195 137 232 83 39 157 38 238 -5z m1230 0 c133 -70 173 -247 85
-370 -91 -125 -263 -143 -375 -40 -48 44 -85 124 -85 183 0 91 62 195 137 232
83 39 157 38 238 -5z m-3514 -718 c80 -39 150 -111 187 -191 27 -56 27 -61 30
-294 l4 -238 -516 0 -516 0 0 84 0 85 176 3 176 3 29 33 c16 18 29 44 29 58 0
33 -25 81 -49 94 -12 6 -93 10 -192 10 l-172 0 7 57 c17 144 126 273 269 319
31 10 99 13 257 11 l216 -2 65 -32z m1230 0 c80 -39 150 -111 187 -191 27 -56
27 -61 30 -294 l4 -238 -517 0 -517 0 4 238 c3 232 4 238 30 294 31 68 96 140
155 175 83 48 112 53 343 50 l216 -2 65 -32z m1230 0 c80 -39 150 -111 187
-191 27 -56 27 -61 30 -294 l4 -238 -517 0 -517 0 4 238 c3 232 4 238 30 294
31 68 96 140 155 175 83 48 112 53 343 50 l216 -2 65 -32z m1230 0 c118 -58
200 -172 215 -296 l7 -57 -172 0 c-99 0 -180 -4 -192 -10 -24 -13 -49 -61 -49
-94 0 -14 13 -40 29 -58 l29 -33 176 -3 176 -3 0 -85 0 -84 -516 0 -516 0 4
238 c3 232 4 238 30 294 31 68 96 140 155 175 83 48 112 53 343 50 l216 -2 65
-32z"/>
<path d="M729 1201 c-68 -69 -8 -184 86 -167 40 8 85 57 85 92 0 91 -107 138
-171 75z"/>
<path d="M4267 1219 c-22 -13 -47 -61 -47 -93 0 -35 45 -84 85 -92 94 -17 154
98 86 167 -23 22 -39 29 -68 29 -21 0 -46 -5 -56 -11z"/>
</g>
</svg>
